# xmcd
#
# Track frame offsets: 
#        183
#        19795
#        31118
#        43633
#        55573
#        66213
#        75653
#        88235
#        98298
#        108225
#        117970
#        126690
#        138055
#        151448
#        162400
#        170355
#
# Disc length: 2398 seconds
#
# Revision: 7
# Processed by: cddbd v1.5.2PL0 Copyright (c) Steve Scherf et al.
# Submitted via: ExactAudioCopyFreeDBPlugin 1.0
#
DISCID=c4095c10
DTITLE=Various Artist - All Time Country Hits
DYEAR=1988
DGENRE=Country
TTITLE0=Marty Robbins - El Paso
TTITLE1=Don Gibson - Sea Of Heartbreak
TTITLE2=Bob Luman - The Great Snowman
TTITLE3=Jim Reeves - Mexican Joe
TTITLE4=Slim Whiteman - Rose Marie
TTITLE5=Bobby Helms - A Fool Such As I
TTITLE6=Johnny Cash - Folsom Prison Blues
TTITLE7=Conway Twitty - It´s Only Make Believe
TTITLE8=Johnny Horton - Honky-Tonk Man
TTITLE9=Faron Young - Sweet Dreams
TTITLE10=Ferlin Husky - Wing Of A Dove
TTITLE11=Patsy Cline - Walking After Midnight
TTITLE12=Jerry Lee Lewis - The Ballad Of Billy Joe
TTITLE13=Carl Perkins - Dixiefried
TTITLE14=John D Loudermilk - Language Of Love
TTITLE15=Floyd cramer - On The Rebound
EXTD=YEAR: 1988
EXTT0=
EXTT1=
EXTT2=
EXTT3=
EXTT4=
EXTT5=
EXTT6=
EXTT7=
EXTT8=
EXTT9=
EXTT10=
EXTT11=
EXTT12=
EXTT13=
EXTT14=
EXTT15=
PLAYORDER=
